<svg width="146" height="146" fill="none" xmlns="http://www.w3.org/2000/svg"><circle cx="73" cy="73" r="73" fill="#F7F7F8"/><path d="M72.73 56C54.063 56 43 73.5 43 73.5S54.063 91 72.73 91C90.938 91 102 73.5 102 73.5S90.937 56 72.73 56Zm-.23 6.447c6.13 0 11.063 4.928 11.063 11.053A11.031 11.031 0 0 1 72.5 84.553 11.031 11.031 0 0 1 61.437 73.5 11.031 11.031 0 0 1 72.5 62.447Zm0 5.527c-3.042 0-5.531 2.486-5.531 5.526 0 3.04 2.489 5.526 5.531 5.526s5.531-2.486 5.531-5.526c0-.875-.179-1.652-.547-2.39-.323.37-.79.548-1.297.548a1.848 1.848 0 0 1-1.844-1.842c0-.507.18-.973.548-1.296a5.214 5.214 0 0 0-2.392-.547h.001Z" fill="#1D1F20"/><path stroke="#1D1F20" stroke-width="4" stroke-linecap="round" stroke-linejoin="round" d="M105 40.828 37.828 108"/></svg>